<?xml version="1.0" encoding="UTF-8"?>
<svg version="1.1" xmlns="http://www.w3.org/2000/svg" width="500" height="500">
<path d="M0 0 C0.81178711 0.33902344 1.62357422 0.67804687 2.45996094 1.02734375 C26.71535182 11.31427591 49.56408328 28.24522309 68 47 C69.38445312 48.34964844 69.38445312 48.34964844 70.796875 49.7265625 C77.35183842 56.13483062 83.42925252 62.69915046 89 70 C89.48581543 70.63647461 89.97163086 71.27294922 90.47216797 71.92871094 C111.25970553 99.37670605 125.9189228 129.97208785 134.1875 163.375 C134.42581543 164.33027588 134.66413086 165.28555176 134.90966797 166.26977539 C139.13444345 184.12797548 140.57617148 201.61968286 140.5 219.9375 C140.49885193 221.54017731 140.49885193 221.54017731 140.49768066 223.17523193 C140.45272663 240.62554286 139.11485906 256.99233122 135 274 C134.68513793 275.42164065 134.37120104 276.84348684 134.05859375 278.265625 C133.1799683 281.90620757 132.14195553 285.43324278 131 289 C130.74412109 289.81500977 130.48824219 290.63001953 130.22460938 291.46972656 C124.5443215 309.3632745 117.28802086 326.56121531 107.45336914 342.58764648 C106.07519387 344.87519056 104.7974455 347.19392692 103.53515625 349.546875 C100.86943997 354.39053366 97.71228966 358.80322003 94.4375 363.25 C93.87353516 364.02601563 93.30957031 364.80203125 92.72851562 365.6015625 C88.4593332 371.45358799 84.14469396 376.8848123 79 382 C77.65103098 383.37314631 76.3021277 384.74635936 74.95532227 386.12162781 C72.86137563 388.25660769 70.75864202 390.38285659 68.65576172 392.5090332 C67.56345655 393.6163169 66.47387173 394.72629166 65.38720703 395.83911133 C55.27203456 406.19012979 44.83539658 415.10393765 32.109375 422.17578125 C29.33913708 423.8010339 26.75193844 425.5685943 24.14306641 427.43774414 C-0.84252665 445.09878403 -32.1834679 454.58049195 -62 460 C-62.90505783 460.17021164 -63.81011566 460.34042328 -64.74259949 460.51579285 C-68.03514513 461.00522427 -71.15517349 461.14750882 -74.48242188 461.17700195 C-75.75234985 461.18983719 -77.02227783 461.20267242 -78.33068848 461.21589661 C-79.71003824 461.2240768 -81.08939256 461.23151805 -82.46875 461.23828125 C-83.52807991 461.24439454 -83.52807991 461.24439454 -84.60881042 461.25063133 C-88.36241352 461.27145778 -92.11598066 461.28576233 -95.86962891 461.29516602 C-98.92810511 461.30394155 -101.98611439 461.32461639 -105.04443359 461.35668945 C-152.82423558 461.84666336 -198.8268552 449.16262429 -238.18115234 421.25878906 C-240.61427394 419.57487296 -243.14465537 418.07405918 -245.6875 416.5625 C-260.25239348 407.35070672 -273.32600562 393.97182872 -284.4140625 380.85546875 C-285.50320557 379.58122501 -286.62536032 378.33469376 -287.7734375 377.11328125 C-297.65881469 366.52180569 -307.05506187 353.55637607 -313.3125 340.4375 C-315.00708075 336.93747808 -316.82277115 333.54911922 -318.74536133 330.16943359 C-331.70296014 307.0252413 -339.14321485 280.11573577 -343 254 C-343.176521 252.81535156 -343.35304199 251.63070313 -343.53491211 250.41015625 C-344.17998069 245.13129443 -344.18127899 239.85897597 -344.203125 234.546875 C-344.20882507 233.45143372 -344.21452515 232.35599243 -344.22039795 231.22735596 C-344.22981411 228.91102044 -344.23636842 226.59467174 -344.24023438 224.27832031 C-344.24985474 220.80248289 -344.2808758 217.32725933 -344.3125 213.8515625 C-344.37728192 200.28784131 -343.5986779 187.32072729 -341 174 C-340.79584473 172.93587891 -340.59168945 171.87175781 -340.38134766 170.77539062 C-339.86702248 168.29256587 -339.30051582 165.835102 -338.6875 163.375 C-338.47512695 162.51076416 -338.26275391 161.64652832 -338.04394531 160.75610352 C-334.00700693 144.75922252 -328.17494977 129.8411197 -321 115 C-320.52143555 114.00484375 -320.04287109 113.0096875 -319.54980469 111.984375 C-312.35931794 97.18936196 -304.34633161 83.79637256 -294 71 C-293.50226074 70.38205566 -293.00452148 69.76411133 -292.49169922 69.12744141 C-289.41460077 65.33951748 -286.24201491 61.64726677 -283 58 C-282.53464844 57.47293457 -282.06929687 56.94586914 -281.58984375 56.40283203 C-276.74720806 50.93837289 -271.87574007 45.58226148 -266.26171875 40.890625 C-264.46273747 39.38681336 -262.70622092 37.85718001 -260.95703125 36.296875 C-252.44399288 28.7558413 -243.53136677 22.19284582 -234 16 C-233.29891113 15.53706543 -232.59782227 15.07413086 -231.87548828 14.59716797 C-220.13724191 6.88970069 -208.03589746 1.16642068 -195 -4 C-194.11876465 -4.35723145 -193.2375293 -4.71446289 -192.32958984 -5.08251953 C-180.09198404 -10.03727939 -167.86617087 -14.03560617 -155 -17 C-153.74058594 -17.29648437 -152.48117188 -17.59296875 -151.18359375 -17.8984375 C-99.65478703 -29.12693691 -47.93453124 -20.11868358 0 0 Z " fill="#C655AA" transform="translate(353,39)"/>
<path d="M0 0 C5.61 0 11.22 0 17 0 C22.63200936 5.77107132 22.63200936 5.77107132 24.37109375 8.79296875 C27.4235332 13.81191846 31.02817866 18.36351602 34.625 23 C36.01485847 24.82151597 37.40285577 26.64445345 38.7890625 28.46875 C42.19607349 32.94428776 45.60432792 37.41887543 49.01342773 41.89282227 C50.34120192 43.63539331 51.66883795 45.37806963 52.99633789 47.12084961 C56.34028872 51.51072915 59.68599348 55.89925144 63.03515625 60.28515625 C69.60379116 68.89087931 76.1453189 77.5145537 82.625 86.1875 C87.97810306 93.35090225 93.42275362 100.4350681 98.9309082 107.47973633 C103.69525173 113.5822949 108.36050231 119.75440886 112.98828125 125.9609375 C116.98100841 131.31564552 120.99234276 136.65645702 125 142 C125.33 95.14 125.66 48.28 126 0 C132.6 0 139.2 0 146 0 C146 59.07 146 118.14 146 179 C129 179 129 179 124 174.25 C122.62736451 172.19234907 121.29357916 170.10824773 120 168 C118.6635254 166.19509766 117.30867533 164.40368351 115.9375 162.625 C115.195 161.62597656 114.4525 160.62695312 113.6875 159.59765625 C110.30783223 155.05786258 106.87009999 150.56231681 103.4375 146.0625 C102.75099365 145.16225098 102.0644873 144.26200195 101.35717773 143.33447266 C99.94251308 141.47955559 98.52771682 139.62473889 97.11279297 137.77001953 C93.74002239 133.34808113 90.37010868 128.92396724 87 124.5 C85.66668139 122.74998878 84.33334803 120.9999888 83 119.25 C75 108.75 67 98.25 59 87.75 C58.00939575 86.4498999 58.00939575 86.4498999 56.9987793 85.12353516 C55.66933832 83.37855254 54.34007317 81.63343596 53.01098633 79.88818359 C49.61955024 75.43528664 46.22481946 70.98496554 42.82421875 66.5390625 C42.13134766 65.63220703 41.43847656 64.72535156 40.72460938 63.79101562 C39.43151446 62.0987102 38.13736733 60.40720785 36.84179688 58.71679688 C31.11668029 51.21976588 25.58247993 43.61247263 20 36 C19.67 83.19 19.34 130.38 19 179 C12.73 179 6.46 179 0 179 C0 119.93 0 60.86 0 0 Z " fill="#030104" transform="translate(243,149)"/>
<path d="M0 0 C6.27 0 12.54 0 19 0 C19.06961229 17.39454843 19.12306824 34.78904075 19.15543652 52.18369675 C19.17086885 60.26134754 19.19188839 68.3389099 19.22631836 76.41650391 C19.25633252 83.46149962 19.27560137 90.50643124 19.28226548 97.55148911 C19.28615751 101.2776701 19.29522735 105.00366781 19.31719017 108.72978973 C19.34157808 112.9016463 19.34196234 117.07318946 19.34057617 121.24511719 C19.351362 122.46432358 19.36214783 123.68352997 19.3732605 124.93968201 C19.31612303 140.90615124 14.6578961 155.08187727 3.48046875 166.74609375 C-10.73827924 179.66612145 -27.11529953 181.84594421 -45.55859375 181.17919922 C-50.55062241 180.81278431 -54.62642754 179.34768689 -59 177 C-59.83273438 176.57589844 -60.66546875 176.15179688 -61.5234375 175.71484375 C-68.15452337 172.05244401 -73.5492233 167.21882875 -79 162 C-77.46356148 158.31930113 -75.21849055 156.01224796 -72.375 153.25 C-71.14910156 152.05117188 -71.14910156 152.05117188 -69.8984375 150.828125 C-69.27195313 150.22484375 -68.64546875 149.6215625 -68 149 C-65.17593366 150.28699352 -63.15830367 151.65985399 -60.9375 153.8125 C-53.63263357 160.26355087 -44.46993235 163.35264996 -34.84765625 163.2109375 C-24.0646306 162.41219486 -15.87999212 158.77154785 -8.1875 151.25 C-3.84398717 144.79678094 -0.89245898 137.31118891 -0.84178162 129.51411438 C-0.8319928 128.37407959 -0.82220398 127.2340448 -0.81211853 126.0594635 C-0.80636307 124.80789963 -0.8006076 123.55633575 -0.79467773 122.2668457 C-0.78477814 120.9496756 -0.77487854 119.63250549 -0.76467896 118.27542114 C-0.73763272 114.6620971 -0.71662164 111.04876 -0.69667697 107.43539071 C-0.67481569 103.65971765 -0.64742769 99.88408482 -0.62062073 96.10844421 C-0.57069577 88.95808234 -0.52575621 81.80769812 -0.48259836 74.65729254 C-0.43322431 66.51708531 -0.3783068 58.37691844 -0.32291877 50.23675025 C-0.20910174 33.4912038 -0.10245873 16.74561983 0 0 Z " fill="#020101" transform="translate(203,149)"/>
<path d="M0 0 C6.6 0 13.2 0 20 0 C20.06961657 17.13378055 20.12307041 34.26750412 20.15543652 51.40139389 C20.17086791 59.35797711 20.19188562 67.31447053 20.22631836 75.27099609 C20.25633543 82.21051639 20.27560205 89.1499716 20.28226548 96.08955503 C20.28615703 99.7598459 20.29522369 103.42995068 20.31719017 107.10018158 C20.34158393 111.2097733 20.34196216 115.31904693 20.34057617 119.42871094 C20.351362 120.62921585 20.36214783 121.82972076 20.3732605 123.06660461 C20.31746189 138.43125205 16.20018909 152.38914646 6 164 C5.47664063 164.61746094 4.95328125 165.23492187 4.4140625 165.87109375 C-3.00940036 174.00069088 -14.24353679 180.59105416 -25.38378906 181.11132812 C-31.2586163 181.24373063 -37.12667644 181.16671006 -43 181 C-40.68911949 178.68911949 -39.15358499 178.29260012 -36.0625 177.3125 C-21.99966852 172.30583748 -12.87972368 163.71637066 -6.421875 150.3828125 C-5.95265625 149.26648438 -5.4834375 148.15015625 -5 147 C-4.67176113 146.25624713 -4.34352226 145.51249426 -4.00533676 144.74620342 C-0.90618535 137.14714872 -0.42083858 130.41437819 -0.45410156 122.2668457 C-0.4453457 120.92532668 -0.43485298 119.58381806 -0.42277527 118.24232483 C-0.39514023 114.63556856 -0.39150554 111.02915682 -0.39249516 107.42231011 C-0.38934648 103.63995848 -0.36368803 99.85775763 -0.34051514 96.07548523 C-0.3001002 88.92891125 -0.27964875 81.78242819 -0.26654124 74.63575763 C-0.25062176 66.49289196 -0.21218558 58.35017992 -0.17194796 50.20740378 C-0.08974777 33.47164287 -0.03633041 16.73592409 0 0 Z " fill="#FCF9FB" transform="translate(223,149)"/>
<path d="M0 0 C16.64695597 14.87530398 21.35356947 52.14317166 25 73 C25.18618896 73.92731934 25.37237793 74.85463867 25.56420898 75.81005859 C27.61067555 86.94877543 27.43792632 98.21386828 27.4375 109.5 C27.44009827 111.12890167 27.44009827 111.12890167 27.44274902 112.79071045 C27.43042269 130.39434017 26.1513096 146.84167266 22 164 C21.68513793 165.42164065 21.37120104 166.84348684 21.05859375 168.265625 C20.1799683 171.90620757 19.14195553 175.43324278 18 179 C17.74412109 179.81500977 17.48824219 180.63001953 17.22460938 181.46972656 C11.5443215 199.3632745 4.28802086 216.56121531 -5.54663086 232.58764648 C-6.92480613 234.87519056 -8.2025545 237.19392692 -9.46484375 239.546875 C-12.13056003 244.39053366 -15.28771034 248.80322003 -18.5625 253.25 C-19.12646484 254.02601563 -19.69042969 254.80203125 -20.27148438 255.6015625 C-24.5406668 261.45358799 -28.85530604 266.8848123 -34 272 C-35.34896902 273.37314631 -36.6978723 274.74635936 -38.04467773 276.12162781 C-40.13862437 278.25660769 -42.24135798 280.38285659 -44.34423828 282.5090332 C-45.43654345 283.6163169 -46.52612827 284.72629166 -47.61279297 285.83911133 C-57.72796544 296.19012979 -68.16460342 305.10393765 -80.890625 312.17578125 C-83.66086292 313.8010339 -86.24806156 315.5685943 -88.85693359 317.43774414 C-113.84252665 335.09878403 -145.1834679 344.58049195 -175 350 C-175.96591064 350.18103271 -176.93182129 350.36206543 -177.92700195 350.54858398 C-180.95038508 350.99271169 -183.7827617 351.11407117 -186.8359375 351.09765625 C-187.89941406 351.09443359 -188.96289062 351.09121094 -190.05859375 351.08789062 C-191.15300781 351.07951172 -192.24742187 351.07113281 -193.375 351.0625 C-194.49261719 351.05798828 -195.61023438 351.05347656 -196.76171875 351.04882812 C-199.50786804 351.03709244 -202.25390586 351.02067363 -205 351 C-205 350.67 -205 350.34 -205 350 C-203.89269531 349.91363281 -202.78539062 349.82726562 -201.64453125 349.73828125 C-145.0349725 344.93489893 -94.26969311 324.58371491 -52.2890625 286.04296875 C-50.70842139 284.63226004 -49.07891982 283.27510155 -47.4140625 281.96484375 C-45.25692317 280.20911384 -43.53553345 278.49419374 -41.75 276.375 C-39.8742309 274.16915994 -37.9962609 271.99604095 -36.0078125 269.890625 C-25.04067956 258.24055704 -16.08798741 244.76031487 -8 231 C-7.39671875 230.01902344 -6.7934375 229.03804687 -6.171875 228.02734375 C-2.31809396 221.66860503 0.77658647 215.21425161 3.60546875 208.33984375 C4.79201273 205.49812077 6.08077717 202.76205787 7.4375 200 C15.91514892 181.4585614 20.73718948 160.86223934 22.60546875 140.6328125 C23 137 23 137 24 134 C24.10645082 132.45542014 24.1585728 130.90677664 24.17700195 129.35864258 C24.18983719 128.41527542 24.20267242 127.47190826 24.21589661 126.49995422 C24.22328354 125.47516464 24.23067047 124.45037506 24.23828125 123.39453125 C24.25038887 121.78828133 24.25038887 121.78828133 24.26274109 120.14958191 C24.27659792 117.86723449 24.28731289 115.58486621 24.29516602 113.30249023 C24.30653558 111.01336411 24.32673923 108.72426116 24.35668945 106.43530273 C24.82021992 70.97133765 16.72348746 36.150916 1.03125 4.265625 C0 2 0 2 0 0 Z " fill="#F9F4FD" transform="translate(466,149)"/>
<path d="M0 0 C0.33 0.66 0.66 1.32 1 2 C0.23071289 4.02099609 0.23071289 4.02099609 -1.02734375 6.5234375 C-1.48592773 7.4513208 -1.94451172 8.3792041 -2.41699219 9.33520508 C-2.91875977 10.3383374 -3.42052734 11.34146973 -3.9375 12.375 C-13.22958858 31.46109208 -20.17907252 50.28984976 -25 71 C-25.2273584 71.94246582 -25.4547168 72.88493164 -25.68896484 73.85595703 C-29.19353913 88.98138719 -29.36166419 104.05068899 -29.375 119.5 C-29.37708466 120.4856897 -29.37916931 121.47137939 -29.38131714 122.48693848 C-29.37715977 139.85317156 -28.7760509 157.89488215 -23.9375 174.6875 C-22.78204957 178.77009153 -22.3633265 182.78350036 -22 187 C-23.92275576 184.11586636 -24.49686284 182.50657058 -25.21875 179.203125 C-25.42886719 178.24277344 -25.63898437 177.28242188 -25.85546875 176.29296875 C-26.06816406 175.28878906 -26.28085937 174.28460938 -26.5 173.25 C-26.71269531 172.29222656 -26.92539062 171.33445312 -27.14453125 170.34765625 C-30.51085334 154.7138782 -31.34637513 139.6955915 -31.31567383 123.75024414 C-31.31252209 120.33642358 -31.33601952 116.92347924 -31.36132812 113.50976562 C-31.40045962 100.06995478 -30.55945212 87.200397 -28 74 C-27.79592529 72.93531494 -27.59185059 71.87062988 -27.3815918 70.77368164 C-26.86685848 68.29155326 -26.30037204 65.83452496 -25.6875 63.375 C-25.36894043 62.07864624 -25.36894043 62.07864624 -25.04394531 60.75610352 C-19.61112649 39.22786899 -10.77010672 19.3685843 0 0 Z " fill="#FDC4C5" transform="translate(40,139)"/>
<path d="M0 0 C2.85629596 1.30113265 4.92210213 2.71588005 7.1875 4.875 C11.04168944 8.29349846 15.22736266 10.16020783 20 12 C20 12.66 20 13.32 20 14 C9.94703378 16.68079099 1.13849061 14.56924531 -8 10 C-6.34908222 5.70761377 -3.26245434 3.1206085 0 0 Z " fill="#F4F1F3" transform="translate(156,298)"/>
<path d="M0 0 C3.90093384 3.2369451 7.55089355 6.53122063 11.0625 10.1875 C16.39499866 15.59292171 22.32303979 20.13412766 28.34472656 24.73388672 C30.70056574 26.53586046 33.03718578 28.36223496 35.375 30.1875 C36.58303982 31.12537819 37.79123955 32.06305076 39 33 C38.01 33.495 38.01 33.495 37 34 C25.7774546 26.15096524 15.42199575 17.57146047 5.6875 7.9375 C5.11789551 7.37716064 4.54829102 6.81682129 3.96142578 6.23950195 C0 2.24675327 0 2.24675327 0 0 Z " fill="#FDEEF1" transform="translate(74,424)"/>
<path d="M0 0 C0.33 0 0.66 0 1 0 C1.1922881 5.64133763 1.371007 11.28287935 1.53710938 16.92504883 C1.59554321 18.84476269 1.65769741 20.76436704 1.72363281 22.68383789 C1.81771235 25.44136619 1.89844762 28.1990103 1.9765625 30.95703125 C2.00875885 31.81649857 2.0409552 32.67596588 2.0741272 33.56147766 C2.09429901 34.36208115 2.11447083 35.16268463 2.13525391 35.98754883 C2.15746002 36.6914827 2.17966614 37.39541656 2.20254517 38.12068176 C2 40 2 40 0 43 C-0.39387788 45.32387947 -0.73486085 47.65793749 -1 50 C-1.33 50 -1.66 50 -2 50 C-2.125 42.375 -2.125 42.375 -1 39 C-0.84565842 36.05282827 -0.7424397 33.12501135 -0.68359375 30.17578125 C-0.66281265 29.31438034 -0.64203156 28.45297943 -0.62062073 27.56547546 C-0.55525091 24.81456456 -0.49629868 22.06355844 -0.4375 19.3125 C-0.39430283 17.44725579 -0.35068815 15.5820212 -0.30664062 13.71679688 C-0.19958237 9.14462876 -0.09827946 4.5723649 0 0 Z " fill="#F0E9FE" transform="translate(491,244)"/>
<path d="M0 0 C-0.33 0.66 -0.66 1.32 -1 2 C-4.96788252 2.91027893 -8.77680061 3.11947957 -12.8359375 3.09765625 C-13.89941406 3.09443359 -14.96289062 3.09121094 -16.05859375 3.08789062 C-17.15300781 3.07951172 -18.24742187 3.07113281 -19.375 3.0625 C-20.49261719 3.05798828 -21.61023438 3.05347656 -22.76171875 3.04882812 C-25.50786804 3.03709244 -28.25390586 3.02067363 -31 3 C-31 2.67 -31 2.34 -31 2 C-30.43079834 1.94465088 -29.86159668 1.88930176 -29.27514648 1.83227539 C-26.66243776 1.57729285 -24.04997032 1.31991322 -21.4375 1.0625 C-20.09461914 0.93198242 -20.09461914 0.93198242 -18.72460938 0.79882812 C-14.8012011 0.41079874 -10.89699715 0.00770435 -7 -0.59375 C-4.2279717 -0.96912883 -2.5995387 -0.93583393 0 0 Z " fill="#F6E8F4" transform="translate(292,497)"/>
<path d="M0 0 C3.910742 1.955371 5.0334674 7.44456905 6.6875 11.3125 C7.11611328 12.27607422 7.54472656 13.23964844 7.98632812 14.23242188 C8.38658203 15.16248047 8.78683594 16.09253906 9.19921875 17.05078125 C9.56877686 17.90325439 9.93833496 18.75572754 10.3190918 19.6340332 C11.06480751 22.2251881 10.90658269 23.49777396 10 26 C2.23404255 8.85106383 2.23404255 8.85106383 0 0 Z " fill="#FCB6B9" transform="translate(22,339)"/>
<path d="M0 0 C1.54353085 3.92037897 0.39357453 6.35082209 -1.1875 10.125 C-1.61417969 11.17945313 -2.04085938 12.23390625 -2.48046875 13.3203125 C-4.08680427 16.15307899 -4.97859626 16.95188992 -8 18 C-3.76923077 3.76923077 -3.76923077 3.76923077 0 0 Z " fill="#F0E7FE" transform="translate(477,342)"/>
<path d="M0 0 C-0.33 0.66 -0.66 1.32 -1 2 C-4.3 1.67 -7.6 1.34 -11 1 C-11 0.67 -11 0.34 -11 0 C-3.57142857 -1.28571429 -3.57142857 -1.28571429 0 0 Z " fill="#F0DAEF" transform="translate(292,497)"/>
</svg>
